<svg width="31" height="22" viewBox="0 0 31 22" fill="none" xmlns="http://www.w3.org/2000/svg">
<path d="M7.80916 4.78374V12.8666C7.80916 13.5819 7.82595 14.0148 7.85953 14.4307H7.82595C7.64951 13.9543 7.44155 13.5368 7.13129 12.9933L2.30976 4.78374H0.106175V16.5988H1.82306V8.51549C1.82306 7.79988 1.80627 7.36728 1.77294 6.95108H1.80833C1.98452 7.42747 2.19247 7.8447 2.50299 8.38794L7.32297 16.5988H9.50331V4.78374H7.80916ZM9.61 0.191406V1.72227H0V0.191406H9.61ZM9.61 19.6605V21.1914H0V19.6605H9.61ZM14.9133 15.0682C15.8105 14.4535 17.0968 13.4323 17.6674 12.8655C18.3161 12.2221 20.1627 10.5683 20.1627 8.2107C20.1627 5.77367 18.561 4.65824 16.3949 4.65824C13.7692 4.65926 12.4726 6.26159 12.4726 8.09468C12.4722 8.40935 12.5117 8.72283 12.5901 9.02774L14.3892 9.19935C14.3132 8.86619 14.2738 8.52587 14.2716 8.18432C14.2716 6.81149 15.1879 6.15452 16.3352 6.15452C17.4538 6.15452 18.2817 6.77589 18.2817 8.27012C18.2817 9.78869 17.5326 10.8237 16.3918 11.956C15.199 13.1393 13.2925 14.5511 12.3742 15.2004V16.5988H20.2965V15.0682H14.9133ZM27.3947 8.73806C25.9739 8.73806 24.9594 9.38965 24.4466 10.3542C24.4466 8.0747 25.2474 6.09049 27.1514 6.09049C28.3614 6.09049 28.8416 6.78075 29.0981 7.91257L30.8605 7.56296C30.4472 5.60898 29.1935 4.65926 27.1637 4.65926C24.6135 4.65926 22.7054 6.6007 22.7054 10.952C22.7054 14.8146 24.2965 16.7238 27.0379 16.7238C29.3033 16.7238 31 15.1901 31 12.6629C31 10.6885 29.9382 8.73806 27.3947 8.73806V8.73806ZM27.0423 15.2962C25.6365 15.2962 24.6631 14.0155 24.4946 12.3151C24.9217 10.8647 25.8685 10.1421 26.9881 10.1421C28.4273 10.1421 29.2392 11.1958 29.2392 12.6939C29.2392 14.3019 28.3133 15.2962 27.0423 15.2962V15.2962Z" fill="white"/>
</svg>
